<svg class="icon" viewBox="0 0 1024 1024" xmlns="http://www.w3.org/2000/svg" width="200" height="200"><path d="M932.438 292.806C797.187 70.595 593.441 225.19 593.441 225.19c-13.214 9.987-37.58 18.198-54.135 18.236l-54.574.038c-16.556.02-40.921-8.192-54.116-18.179 0 0-203.765-154.633-339.035 67.578-135.233 222.135-80.735 464.052-80.735 464.052 9.548 59.234 41.017 98.76 100.403 93.796 59.214-4.946 187.744-159.522 187.744-159.522 10.617-12.736 32.863-23.143 49.38-23.143l327.178-.057c16.536 0 38.763 10.407 49.36 23.143 0 0 128.55 154.576 187.86 159.522 59.31 4.964 90.854-34.6 100.345-93.796-.02 0 54.574-241.88-80.678-464.052zm-543.392 180.87H318.89v67.616s-14.856 11.343-37.847 11.056c-22.952-.344-33.34-12.374-33.34-12.374v-66.279h-66.26s-8.268-8.478-10.484-30.8c-2.176-22.323 9.147-40.368 9.147-40.368h70.175v-70.156s14.436-7.733 35.192-7.141a92.803 92.803 0 0 1 35.995 8.459l-.286 68.819h66.26s11.572 14.856 12.526 32.806c.955 17.968-10.922 38.362-10.922 38.362zm321.792 77.068a55.453 55.453 0 0 1-55.49-55.529 55.414 55.414 0 0 1 55.49-55.529 55.548 55.548 0 1 1 0 111.058zm0-152.78a55.433 55.433 0 0 1-55.49-55.51 55.414 55.414 0 0 1 55.49-55.53 55.548 55.548 0 0 1 55.548 55.53 55.567 55.567 0 0 1-55.548 55.51zm138.288 82.013a55.433 55.433 0 0 1-55.49-55.529 55.433 55.433 0 0 1 55.49-55.528 55.567 55.567 0 0 1 55.548 55.528 55.567 55.567 0 0 1-55.548 55.53z" fill="#001d35"/></svg>