<?xml version="1.0" standalone="no"?><!DOCTYPE svg PUBLIC "-//W3C//DTD SVG 1.1//EN" "http://www.w3.org/Graphics/SVG/1.1/DTD/svg11.dtd"><svg t="1686312929767" class="icon" viewBox="0 0 1024 1024" version="1.1" xmlns="http://www.w3.org/2000/svg" p-id="2461" xmlns:xlink="http://www.w3.org/1999/xlink" width="200" height="200"><path d="M932.438444 292.806027c-135.251408-222.211017-338.997352-67.616156-338.997352-67.616156-13.213889 9.986797-37.579383 18.19774-54.134935 18.23593l-54.574124 0.03819c-16.555551 0.019095-40.921046-8.191847-54.115839-18.178644 0 0-203.765039-154.633051-339.035543 67.577966C-43.651662 514.997949 10.846082 756.915228 10.846082 756.915228c9.547608 59.233357 41.016522 98.760452 100.402641 93.795696 59.214262-4.945661 187.744154-159.521426 187.744154-159.521426 10.61694-12.736508 32.862865-23.143401 49.380226-23.143401l327.177414-0.057286c16.536456 0 38.763286 10.406892 49.36113 23.143401 0 0 128.548987 154.575765 187.858726 159.521426 59.309738 4.964756 90.855033-34.60053 100.345354-93.795696-0.019095 0 54.574124-241.879089-80.677283-464.051915z m-543.392533 180.869876H318.890091v67.616157s-14.856077 11.342558-37.846717 11.056129c-22.952448-0.343714-33.340245-12.373699-33.340245-12.373699v-66.279491h-66.260396s-8.268228-8.478275-10.483273-30.800582c-2.176855-22.322306 9.146608-40.367285 9.146608-40.367285h70.174915v-70.15582s14.435983-7.733562 35.192481-7.14161a92.802745 92.802745 0 0 1 35.994481 8.45918l-0.286429 68.819155h66.260397s11.5717 14.856077 12.526461 32.80558c0.954761 17.968597-10.922463 38.362287-10.922463 38.362286z m321.792563 77.068288a55.452504 55.452504 0 0 1-55.490695-55.528885 55.414314 55.414314 0 0 1 55.490695-55.528885 55.54798 55.54798 0 1 1 0 111.05777z m0-152.780815a55.433409 55.433409 0 0 1-55.490695-55.50979 55.414314 55.414314 0 0 1 55.490695-55.528885 55.54798 55.54798 0 0 1 55.54798 55.528885 55.567076 55.567076 0 0 1-55.54798 55.50979z m138.287547 82.013948a55.433409 55.433409 0 0 1-55.490695-55.528885 55.433409 55.433409 0 0 1 55.490695-55.528885 55.567076 55.567076 0 0 1 55.54798 55.528885 55.567076 55.567076 0 0 1-55.54798 55.528885z" fill="#001d35" p-id="2462"></path></svg>